<svg xmlns="http://www.w3.org/2000/svg" viewBox="0 0 512 512">
  <defs>
    <linearGradient id="orangeGrad" x1="0%" y1="0%" x2="100%" y2="100%">
      <stop offset="0%" style="stop-color:#fdba74;stop-opacity:1" />
      <stop offset="50%" style="stop-color:#f97316;stop-opacity:1" />
      <stop offset="100%" style="stop-color:#ea580c;stop-opacity:1" />
    </linearGradient>
    <filter id="glow" x="-20%" y="-20%" width="140%" height="140%">
      <feGaussianBlur stdDeviation="4" result="blur" />
      <feComposite in="SourceGraphic" in2="blur" operator="over" />
    </filter>
  </defs>
  
  <path fill="url(#orangeGrad)" d="M256,32 C172.96,62.33 93.36,65.88 48,64 C48,229.41 81.33,338.99 256,480 C430.67,338.99 464,229.41 464,64 C418.64,65.88 339.04,62.33 256,32 Z" />
  
  <path fill="#0a0a0a" d="M256,70 C186,95 119,98 80,96 C80,233 108,318 256,436 C404,318 432,233 432,96 C393,98 326,95 256,70 Z" />
  
  <g stroke="url(#orangeGrad)" stroke-width="48" stroke-linecap="round" stroke-linejoin="round" fill="none" filter="url(#glow)">
    <polyline points="170,186 90,256 170,326" />
    <polyline points="342,186 422,256 342,326" />
    <line x1="286" y1="160" x2="226" y2="352" />
  </g>
</svg>
